HIERARCHY
ROOT Hips
{
  OFFSET 10.132 7.272 -244.623
  CHANNELS 6 Xposition Yposition Zposition Zrotation Xrotation Yrotation
  JOINT LeftUpLeg
  {
    OFFSET 8.957 -7.097 4.359
    CHANNELS 6 Xposition Yposition Zposition Zrotation Xrotation Yrotation
    JOINT LeftLeg
    {
      OFFSET 0.000 -47.883 0.000
      CHANNELS 6 Xposition Yposition Zposition Zrotation Xrotation Yrotation
      JOINT LeftFoot
      {
        OFFSET 0.000 -37.430 -0.000
        CHANNELS 6 Xposition Yposition Zposition Zrotation Xrotation Yrotation
        End Site
        {
          OFFSET 0.000 -9.002 5.197
        }
      }
    }
  }
  JOINT RightUpLeg
  {
    OFFSET -8.960 -7.463 3.455
    CHANNELS 6 Xposition Yposition Zposition Zrotation Xrotation Yrotation
    JOINT RightLeg
    {
      OFFSET 0.000 -48.463 0.000
      CHANNELS 6 Xposition Yposition Zposition Zrotation Xrotation Yrotation
      JOINT RightFoot
      {
        OFFSET -0.000 -35.827 -0.000
        CHANNELS 6 Xposition Yposition Zposition Zrotation Xrotation Yrotation
        End Site
        {
          OFFSET 0.000 -9.225 5.326
        }
      }
    }
  }
  JOINT Spine
  {
    OFFSET 0.000 4.865 -4.865
    CHANNELS 6 Xposition Yposition Zposition Zrotation Xrotation Yrotation
    JOINT LeftShoulder
    {
      OFFSET -0.000 29.037 0.000
      CHANNELS 6 Xposition Yposition Zposition Zrotation Xrotation Yrotation
      JOINT LeftArm
      {
        OFFSET 20.388 0.000 -0.000
        CHANNELS 6 Xposition Yposition Zposition Zrotation Xrotation Yrotation
        JOINT LeftForeArm
        {
          OFFSET 24.108 0.000 0.000
          CHANNELS 6 Xposition Yposition Zposition Zrotation Xrotation Yrotation
          JOINT LeftHand
          {
            OFFSET 23.435 0.000 -0.000
            CHANNELS 6 Xposition Yposition Zposition Zrotation Xrotation Yrotation
            JOINT LeftHandThumb1
            {
            OFFSET 4.970 -0.620 3.390
            CHANNELS 6 Xposition Yposition Zposition Zrotation Xrotation Yrotation
              JOINT LeftHandThumb2
              {
              OFFSET 2.150 -0.000 0.000
              CHANNELS 6 Xposition Yposition Zposition Zrotation Xrotation Yrotation
                JOINT LeftHandThumb3
                {
                OFFSET 2.200 -0.000 0.000
                CHANNELS 6 Xposition Yposition Zposition Zrotation Xrotation Yrotation
                  JOINT LeftHandThumb4
                  {
                  OFFSET 1.700 -0.000 0.000
                  CHANNELS 6 Xposition Yposition Zposition Zrotation Xrotation Yrotation
                  }
                }
              }
            }
            JOINT LeftHandIndex1
            {
            OFFSET 8.730 0.680 2.070
            CHANNELS 6 Xposition Yposition Zposition Zrotation Xrotation Yrotation
              JOINT LeftHandIndex2
              {
              OFFSET 2.670 -0.000 0.000
              CHANNELS 6 Xposition Yposition Zposition Zrotation Xrotation Yrotation
                JOINT LeftHandIndex3
                {
                OFFSET 2.130 -0.000 0.000
                CHANNELS 6 Xposition Yposition Zposition Zrotation Xrotation Yrotation
                  JOINT LeftHandIndex4
                  {
                  OFFSET 1.800 -0.000 0.000
                  CHANNELS 6 Xposition Yposition Zposition Zrotation Xrotation Yrotation
                  }
                }
              }
            }
            JOINT LeftHandMiddle1
            {
            OFFSET 9.220 0.670 0.550
            CHANNELS 6 Xposition Yposition Zposition Zrotation Xrotation Yrotation
              JOINT LeftHandMiddle2
              {
              OFFSET 2.660 -0.000 0.000
              CHANNELS 6 Xposition Yposition Zposition Zrotation Xrotation Yrotation
                JOINT LeftHandMiddle3
                {
                OFFSET 2.280 -0.000 0.000
                CHANNELS 6 Xposition Yposition Zposition Zrotation Xrotation Yrotation
                  JOINT LeftHandMiddle4
                  {
                  OFFSET 1.500 -0.000 0.000
                  CHANNELS 6 Xposition Yposition Zposition Zrotation Xrotation Yrotation
                  }
                }
              }
            }
            JOINT LeftHandRing1
            {
            OFFSET 9.250 0.670 -1.130
            CHANNELS 6 Xposition Yposition Zposition Zrotation Xrotation Yrotation
              JOINT LeftHandRing2
              {
              OFFSET 2.470 -0.000 0.000
              CHANNELS 6 Xposition Yposition Zposition Zrotation Xrotation Yrotation
                JOINT LeftHandRing3
                {
                OFFSET 2.210 -0.000 0.000
                CHANNELS 6 Xposition Yposition Zposition Zrotation Xrotation Yrotation
                  JOINT LeftHandRing4
                  {
                  OFFSET 1.800 -0.000 0.000
                  CHANNELS 6 Xposition Yposition Zposition Zrotation Xrotation Yrotation
                  }
                }
              }
            }
            JOINT LeftHandPinky1
            {
            OFFSET 9.350 0.660 -2.720
            CHANNELS 6 Xposition Yposition Zposition Zrotation Xrotation Yrotation
              JOINT LeftHandPinky2
              {
              OFFSET 1.630 -0.000 0.000
              CHANNELS 6 Xposition Yposition Zposition Zrotation Xrotation Yrotation
                JOINT LeftHandPinky3
                {
                OFFSET 1.710 -0.000 0.000
                CHANNELS 6 Xposition Yposition Zposition Zrotation Xrotation Yrotation
                  JOINT LeftHandPinky4
                  {
                  OFFSET 1.800 -0.000 0.000
                  CHANNELS 6 Xposition Yposition Zposition Zrotation Xrotation Yrotation
                  }
                }
              }
            }
          }
        }
      }
    }
    JOINT RightShoulder
    {
      OFFSET -0.000 29.037 0.000
      CHANNELS 6 Xposition Yposition Zposition Zrotation Xrotation Yrotation
      JOINT RightArm
      {
        OFFSET -19.924 0.000 -0.000
        CHANNELS 6 Xposition Yposition Zposition Zrotation Xrotation Yrotation
        JOINT RightForeArm
        {
          OFFSET -24.820 0.000 0.000
          CHANNELS 6 Xposition Yposition Zposition Zrotation Xrotation Yrotation
          JOINT RightHand
          {
            OFFSET -22.584 0.000 -0.000
            CHANNELS 6 Xposition Yposition Zposition Zrotation Xrotation Yrotation
            JOINT RightHandThumb1
            {
            OFFSET -4.970 -0.620 3.390
            CHANNELS 6 Xposition Yposition Zposition Zrotation Xrotation Yrotation
              JOINT RightHandThumb2
              {
              OFFSET -2.150 0.000 0.000
              CHANNELS 6 Xposition Yposition Zposition Zrotation Xrotation Yrotation
                JOINT RightHandThumb3
                {
                OFFSET -2.200 0.000 0.000
                CHANNELS 6 Xposition Yposition Zposition Zrotation Xrotation Yrotation
                  JOINT RightHandThumb4
                  {
                  OFFSET -1.700 0.000 0.000
                  CHANNELS 6 Xposition Yposition Zposition Zrotation Xrotation Yrotation
                  }
                }
              }
            }
            JOINT RightHandIndex1
            {
            OFFSET -8.730 0.680 2.070
            CHANNELS 6 Xposition Yposition Zposition Zrotation Xrotation Yrotation
              JOINT RightHandIndex2
              {
              OFFSET -2.670 0.000 0.000
              CHANNELS 6 Xposition Yposition Zposition Zrotation Xrotation Yrotation
                JOINT RightHandIndex3
                {
                OFFSET -2.130 0.000 0.000
                CHANNELS 6 Xposition Yposition Zposition Zrotation Xrotation Yrotation
                  JOINT RightHandIndex4
                  {
                  OFFSET -1.800 0.000 0.000
                  CHANNELS 6 Xposition Yposition Zposition Zrotation Xrotation Yrotation
                  }
                }
              }
            }
            JOINT RightHandMiddle1
            {
            OFFSET -9.220 0.670 0.550
            CHANNELS 6 Xposition Yposition Zposition Zrotation Xrotation Yrotation
              JOINT RightHandMiddle2
              {
              OFFSET -2.660 0.000 0.000
              CHANNELS 6 Xposition Yposition Zposition Zrotation Xrotation Yrotation
                JOINT RightHandMiddle3
                {
                OFFSET -2.280 0.000 0.000
                CHANNELS 6 Xposition Yposition Zposition Zrotation Xrotation Yrotation
                  JOINT RightHandMiddle4
                  {
                  OFFSET -1.500 0.000 0.000
                  CHANNELS 6 Xposition Yposition Zposition Zrotation Xrotation Yrotation
                  }
                }
              }
            }
            JOINT RightHandRing1
            {
            OFFSET -9.250 0.670 -1.130
            CHANNELS 6 Xposition Yposition Zposition Zrotation Xrotation Yrotation
              JOINT RightHandRing2
              {
              OFFSET -2.470 0.000 0.000
              CHANNELS 6 Xposition Yposition Zposition Zrotation Xrotation Yrotation
                JOINT RightHandRing3
                {
                OFFSET -2.210 0.000 0.000
                CHANNELS 6 Xposition Yposition Zposition Zrotation Xrotation Yrotation
                  JOINT RightHandRing4
                  {
                  OFFSET -1.800 0.000 0.000
                  CHANNELS 6 Xposition Yposition Zposition Zrotation Xrotation Yrotation
                  }
                }
              }
            }
            JOINT RightHandPinky1
            {
            OFFSET -9.350 0.660 -2.720
            CHANNELS 6 Xposition Yposition Zposition Zrotation Xrotation Yrotation
              JOINT RightHandPinky2
              {
              OFFSET -1.630 0.000 0.000
              CHANNELS 6 Xposition Yposition Zposition Zrotation Xrotation Yrotation
                JOINT RightHandPinky3
                {
                OFFSET -1.710 0.000 0.000
                CHANNELS 6 Xposition Yposition Zposition Zrotation Xrotation Yrotation
                  JOINT RightHandPinky4
                  {
                  OFFSET -1.800 0.000 0.000
                  CHANNELS 6 Xposition Yposition Zposition Zrotation Xrotation Yrotation
                  }
                }
              }
            }
          }
        }
      }
    }
    JOINT Neck
    {
      OFFSET -0.000 29.037 0.000
      CHANNELS 6 Xposition Yposition Zposition Zrotation Xrotation Yrotation
      JOINT Head
      {
        OFFSET -0.000 23.304 -0.000
        CHANNELS 6 Xposition Yposition Zposition Zrotation Xrotation Yrotation
        End Site
        {
          OFFSET -0.000 0.093 -0.000
        }
      }
    }
  }
}
MOTION
Frames:	5
Frame Time:	0.0333333
11.0307 26.962 -220.649 -1.48112 10.5513 3.84609 7.66243 -7.38515 3.16281 -1.20991 0.582996 0.289241 0 -57.7508 4.76837e-05 7.50231 -14.6467 -6.61838e-07 2.98023e-06 -35.4242 -2.38419e-05 -41.1695 -18.3143 -42.8528 -7.72562 -7.52647 2.83251 3.4539 1.5214 -2.01066 2.23517e-06 -57.7607 7.15256e-05 -5.66014 -14.2317 0 -1.49012e-06 -35.9442 -2.38419e-05 -8.77188 -32.2786 -9.02417 0 4.73903 -4.73902 -0.383395 -12.9148 -0.331735 0 29.0364 4.76837e-05 3.331 9.39151e-06 -4.80859 17.5987 -5.96046e-06 -7.15256e-05 -75.7476 25.0798 3.14499 27.5451 1.78814e-05 7.15256e-05 6.21106e-06 -5.12264e-06 -22.1472 23.5306 5.96046e-06 -1.19209e-05 0.293699 0.0661529 -5.47354 0.0062 0.0497 0.0339 0 0 0 0 0.0215 0 0 0 0 0 0.022 0 0 0 0 0 0.017 0 0 0 0 -0.0068 0.0873 0.0207 0 0 0 0 0.0267 0 0 0 0 0 0.0213 0 0 0 0 0 0.018 0 0 0 0 -0.0067 0.0922 0.0055 0 0 0 0 0.0266 0 0 0 0 0 0.0228 0 0 0 0 0 0.015 0 0 0 0 -0.0067 0.0925 -0.0113 0 0 0 0 0.0247 0 0 0 0 0 0.0221 0 0 0 0 0 0.018 0 0 0 0 -0.0066 0.0935 -0.0272 0 0 0 0 0.0163 0 0 0 0 0 0.0171 0 0 0 0 0 0.018 0 0 0 0 0 29.0364 4.76837e-05 -3.1951 2.13443e-07 4.56093 -18.552 5.96046e-06 -4.76837e-05 77.5804 33.5919 -0.412756 -27.9684 1.19209e-05 2.38419e-05 2.90002e-06 1.19528e-05 20.0949 -24.3058 -3.57628e-05 -1.19209e-05 3.9701 0.0021977 1.25721 -0.0062 0.0497 0.0339 0 0 0 0 0.0215 0 0 0 0 0 0.022 0 0 0 0 0 0.017 0 0 0 0 0.0068 0.0873 0.0207 0 0 0 0 0.0267 0 0 0 0 0 0.0213 0 0 0 0 0 0.018 0 0 0 0 0.0067 0.0922 0.0055 0 0 0 0 0.0266 0 0 0 0 0 0.0228 0 0 0 0 0 0.015 0 0 0 0 0.0067 0.0925 -0.0113 0 0 0 0 0.0247 0 0 0 0 0 0.0221 0 0 0 0 0 0.018 0 0 0 0 0.0066 0.0935 -0.0272 0 0 0 0 0.0163 0 0 0 0 0 0.0171 0 0 0 0 0 0.018 0 0 0 0 0 29.0364 4.76837e-05 0.724042 -2.6251 0.0331629 -5.96046e-06 25.1395 4.76837e-05 1.00052e-05 -9.39151e-06 0 
11.0531 26.9773 -220.605 -1.46609 9.79686 3.82052 7.64979 -7.41205 3.0642 -1.20707 1.39054 0.410487 8.9407e-06 -57.7628 0 7.58778 -14.8424 1.76649e-06 -7.45058e-06 -35.4823 -4.76837e-05 -41.2139 -18.2033 -42.8646 -7.7111 -7.56043 2.75145 3.48975 2.32909 -2.00187 2.23517e-06 -57.7693 0 -5.69626 -14.2701 2.20239e-07 0 -35.9789 2.38419e-05 -8.79446 -32.1555 -9.03663 2.98023e-06 4.76668 -4.76668 -0.386435 -12.1731 -0.339809 -1.49012e-06 29.0364 -4.76837e-05 3.38396 8.53774e-06 -4.82152 17.5771 -5.96046e-06 9.53674e-05 -75.8086 25.6062 3.26524 27.5664 -2.38419e-05 -2.38419e-05 3.08815e-06 1.19528e-05 -22.4366 23.8085 5.96046e-06 0 0.163141 0.0615884 -5.33772 0.0062 0.0497 0.0339 0 0 0 0 0.0215 0 0 0 0 0 0.022 0 0 0 0 0 0.017 0 0 0 0 -0.0068 0.0873 0.0207 0 0 0 0 0.0267 0 0 0 0 0 0.0213 0 0 0 0 0 0.018 0 0 0 0 -0.0067 0.0922 0.0055 0 0 0 0 0.0266 0 0 0 0 0 0.0228 0 0 0 0 0 0.015 0 0 0 0 -0.0067 0.0925 -0.0113 0 0 0 0 0.0247 0 0 0 0 0 0.0221 0 0 0 0 0 0.018 0 0 0 0 -0.0066 0.0935 -0.0272 0 0 0 0 0.0163 0 0 0 0 0 0.0171 0 0 0 0 0 0.018 0 0 0 0 -1.49012e-06 29.0364 -4.76837e-05 -3.25179 -1.92099e-06 4.57158 -18.5358 5.96046e-06 -4.76837e-05 77.6969 33.384 -0.408487 -27.9738 4.76837e-05 1.19209e-05 1.01643e-05 -1.53679e-05 20.0842 -24.3655 1.19209e-05 -1.19209e-05 4.07025 0.00218574 1.30234 -0.0062 0.0497 0.0339 0 0 0 0 0.0215 0 0 0 0 0 0.022 0 0 0 0 0 0.017 0 0 0 0 0.0068 0.0873 0.0207 0 0 0 0 0.0267 0 0 0 0 0 0.0213 0 0 0 0 0 0.018 0 0 0 0 0.0067 0.0922 0.0055 0 0 0 0 0.0266 0 0 0 0 0 0.0228 0 0 0 0 0 0.015 0 0 0 0 0.0067 0.0925 -0.0113 0 0 0 0 0.0247 0 0 0 0 0 0.0221 0 0 0 0 0 0.018 0 0 0 0 0.0066 0.0935 -0.0272 0 0 0 0 0.0163 0 0 0 0 0 0.0171 0 0 0 0 0 0.018 0 0 0 0 -1.49012e-06 29.0364 -4.76837e-05 0.714938 -2.59003 0.0323095 -2.98023e-06 25.1536 2.38419e-05 1.01119e-05 -1.10991e-05 4.26887e-07 
11.156 27.0352 -220.46 -1.40214 6.78966 3.69544 7.60864 -7.51579 2.65927 -1.17089 4.58538 0.658383 2.98023e-06 -57.8066 4.76837e-05 7.17663 -14.754 2.20721e-07 0 -35.7029 -2.38419e-05 -41.3248 -17.9321 -42.902 -7.66608 -7.69553 2.42541 3.58438 5.5676 -1.79221 0 -57.7994 4.76837e-05 -5.32895 -14.1565 -1.10064e-06 1.49012e-06 -36.4455 -7.15256e-05 -9.32856 -32.22 -9.59053 0 4.89132 -4.89132 -0.410776 -9.17683 -0.301103 -2.98023e-06 29.0365 0 3.78876 8.75118e-06 -4.87731 17.5392 -5.96046e-06 -4.76837e-05 -76.3325 26.4936 3.39493 27.6519 -1.19209e-05 4.76837e-05 1.99236e-07 -1.70755e-06 -23.1222 23.3586 1.19209e-05 -4.76837e-05 0.347046 0.028823 -4.55098 0.0062 0.0497 0.0339 0 0 0 0 0.0215 0 0 0 0 0 0.022 0 0 0 0 0 0.017 0 0 0 0 -0.0068 0.0873 0.0207 0 0 0 0 0.0267 0 0 0 0 0 0.0213 0 0 0 0 0 0.018 0 0 0 0 -0.0067 0.0922 0.0055 0 0 0 0 0.0266 0 0 0 0 0 0.0228 0 0 0 0 0 0.015 0 0 0 0 -0.0067 0.0925 -0.0113 0 0 0 0 0.0247 0 0 0 0 0 0.0221 0 0 0 0 0 0.018 0 0 0 0 -0.0066 0.0935 -0.0272 0 0 0 0 0.0163 0 0 0 0 0 0.0171 0 0 0 0 0 0.018 0 0 0 0 -2.98023e-06 29.0365 0 -3.43874 -1.28066e-06 4.62664 -18.4872 -1.19209e-05 2.38419e-05 78.1176 32.6463 -0.213031 -27.9979 0 5.96046e-05 3.01216e-06 1.70755e-06 20.0579 -24.475 1.19209e-05 -2.38419e-05 4.3431 0.00142757 1.60772 -0.0062 0.0497 0.0339 0 0 0 0 0.0215 0 0 0 0 0 0.022 0 0 0 0 0 0.017 0 0 0 0 0.0068 0.0873 0.0207 0 0 0 0 0.0267 0 0 0 0 0 0.0213 0 0 0 0 0 0.018 0 0 0 0 0.0067 0.0922 0.0055 0 0 0 0 0.0266 0 0 0 0 0 0.0228 0 0 0 0 0 0.015 0 0 0 0 0.0067 0.0925 -0.0113 0 0 0 0 0.0247 0 0 0 0 0 0.0221 0 0 0 0 0 0.018 0 0 0 0 0.0066 0.0935 -0.0272 0 0 0 0 0.0163 0 0 0 0 0 0.0171 0 0 0 0 0 0.018 0 0 0 0 -2.98023e-06 29.0365 0 0.723382 -2.37551 0.029986 -2.98023e-06 25.1943 0 1.00585e-05 -9.39151e-06 -2.13443e-07 
11.156 27.0352 -220.46 -1.40214 6.78966 3.69544 7.60864 -7.51579 2.65927 -1.17089 4.58538 0.658383 2.98023e-06 -57.8066 4.76837e-05 7.17663 -14.754 2.20721e-07 0 -35.7029 -2.38419e-05 -41.3248 -17.9321 -42.902 -7.66608 -7.69553 2.42541 3.58438 5.5676 -1.79221 0 -57.7994 4.76837e-05 -5.32895 -14.1565 -1.10064e-06 1.49012e-06 -36.4455 -7.15256e-05 -9.32856 -32.22 -9.59053 0 4.89132 -4.89132 -0.410776 -9.17683 -0.301103 -2.98023e-06 29.0365 0 3.78876 8.75118e-06 -4.87731 17.5392 -5.96046e-06 -4.76837e-05 -76.3325 26.4936 3.39493 27.6519 -1.19209e-05 4.76837e-05 1.99236e-07 -1.70755e-06 -23.1222 23.3586 1.19209e-05 -4.76837e-05 0.347046 0.028823 -4.55098 0.0062 0.0497 0.0339 0 0 0 0 0.0215 0 0 0 0 0 0.022 0 0 0 0 0 0.017 0 0 0 0 -0.0068 0.0873 0.0207 0 0 0 0 0.0267 0 0 0 0 0 0.0213 0 0 0 0 0 0.018 0 0 0 0 -0.0067 0.0922 0.0055 0 0 0 0 0.0266 0 0 0 0 0 0.0228 0 0 0 0 0 0.015 0 0 0 0 -0.0067 0.0925 -0.0113 0 0 0 0 0.0247 0 0 0 0 0 0.0221 0 0 0 0 0 0.018 0 0 0 0 -0.0066 0.0935 -0.0272 0 0 0 0 0.0163 0 0 0 0 0 0.0171 0 0 0 0 0 0.018 0 0 0 0 -2.98023e-06 29.0365 0 -3.43874 -1.28066e-06 4.62664 -18.4872 -1.19209e-05 2.38419e-05 78.1176 32.6463 -0.213031 -27.9979 0 5.96046e-05 3.01216e-06 1.70755e-06 20.0579 -24.475 1.19209e-05 -2.38419e-05 4.3431 0.00142757 1.60772 -0.0062 0.0497 0.0339 0 0 0 0 0.0215 0 0 0 0 0 0.022 0 0 0 0 0 0.017 0 0 0 0 0.0068 0.0873 0.0207 0 0 0 0 0.0267 0 0 0 0 0 0.0213 0 0 0 0 0 0.018 0 0 0 0 0.0067 0.0922 0.0055 0 0 0 0 0.0266 0 0 0 0 0 0.0228 0 0 0 0 0 0.015 0 0 0 0 0.0067 0.0925 -0.0113 0 0 0 0 0.0247 0 0 0 0 0 0.0221 0 0 0 0 0 0.018 0 0 0 0 0.0066 0.0935 -0.0272 0 0 0 0 0.0163 0 0 0 0 0 0.0171 0 0 0 0 0 0.018 0 0 0 0 -2.98023e-06 29.0365 0 0.723382 -2.37551 0.029986 -2.98023e-06 25.1943 0 1.00585e-05 -9.39151e-06 -2.13443e-07 
11.1798 27.0385 -220.443 -1.40061 6.24781 3.6845 7.60385 -7.53399 2.58451 -1.16393 5.15403 0.650046 -5.96046e-06 -57.814 2.38419e-05 6.99504 -14.4647 2.20431e-07 0 -35.7733 -7.15256e-05 -41.286 -18.0421 -42.9016 -7.66111 -7.72202 2.36483 3.61155 6.15048 -1.82571 2.98023e-06 -57.8043 2.38419e-05 -5.48436 -14.4741 -4.4088e-07 -1.49012e-06 -36.2753 -4.76837e-05 -9.42143 -32.1603 -9.67964 1.49012e-06 4.91896 -4.919 -0.413183 -8.62724 -0.303248 0 29.0364 2.38419e-05 3.83134 8.53774e-06 -4.90227 17.5376 5.96046e-06 -4.76837e-05 -76.3963 26.574 3.4022 27.6664 2.38419e-05 -2.38419e-05 2.78809e-06 0 -23.2683 23.2705 1.19209e-05 -1.19209e-05 0.391112 0.0245153 -4.4063 0.0062 0.0497 0.0339 0 0 0 0 0.0215 0 0 0 0 0 0.022 0 0 0 0 0 0.017 0 0 0 0 -0.0068 0.0873 0.0207 0 0 0 0 0.0267 0 0 0 0 0 0.0213 0 0 0 0 0 0.018 0 0 0 0 -0.0067 0.0922 0.0055 0 0 0 0 0.0266 0 0 0 0 0 0.0228 0 0 0 0 0 0.015 0 0 0 0 -0.0067 0.0925 -0.0113 0 0 0 0 0.0247 0 0 0 0 0 0.0221 0 0 0 0 0 0.018 0 0 0 0 -0.0066 0.0935 -0.0272 0 0 0 0 0.0163 0 0 0 0 0 0.0171 0 0 0 0 0 0.018 0 0 0 0 0 29.0364 2.38419e-05 -3.47588 0 4.65067 -18.4841 1.78814e-05 -4.76837e-05 78.2062 -4.79028 -0.077809 -28.0024 0 2.38419e-05 11.3343 3.25386 15.8108 -24.4501 7.45058e-07 2.38419e-05 4.45223 -0.0128738 1.0034 -0.0062 0.0497 0.0339 0 0 0 0 0.0215 0 0 0 0 0 0.022 0 0 0 0 0 0.017 0 0 0 0 0.0068 0.0873 0.0207 0 0 0 0 0.0267 0 0 0 0 0 0.0213 0 0 0 0 0 0.018 0 0 0 0 0.0067 0.0922 0.0055 0 0 0 0 0.0266 0 0 0 0 0 0.0228 0 0 0 0 0 0.015 0 0 0 0 0.0067 0.0925 -0.0113 0 0 0 0 0.0247 0 0 0 0 0 0.0221 0 0 0 0 0 0.018 0 0 0 0 0.0066 0.0935 -0.0272 0 0 0 0 0.0163 0 0 0 0 0 0.0171 0 0 0 0 0 0.018 0 0 0 0 0 29.0364 2.38419e-05 0.761222 -2.31865 0.0307986 -7.45058e-06 25.2037 0 9.97848e-06 -9.39151e-06 -6.4033e-07 
